:SAMPLES-PER-SECOND 30
:FULLY-SPECIFIED
:DEGREES
156
root  -12.3798 34.5203 -17.5773 -171.248 1.60101 179.849
RightUpLeg  -9.38553 -13.2561 -0.439507
RightLeg  8.60189 -1.10248 -0.0937049
RightFoot  1.98014 -0.0149678 0.0811936
RightToes  -23.435 -0.0991175 -0.202664
Spine  -2.53733 -0.134934 0.728085
Spine1  -5.15258 -0.282484 1.97892
HEad  -64.0485 3.69012 6.32986
LeftShoulder1  -1.94126e-019 -3.10601e-018 -2.51263e-017
LeftArm  -10.7064 26.1492 -83.1128
LeftForeArm  33.2158 -12.953 -2.11032
LeftHand  -0.279699 -0.596446 5.56227
RightShoulder  -4.96962e-017 0 -2.36833e-017
RightArm  -29.1807 -28.2801 74.1345
RightForeArm  48.0779 16.137 1.26966
RightHand  -0.237971 -2.13082 -8.20519
LeftUpLeg  -8.40516 -1.77566 1.50853
LeftLeg  8.04023 12.4643 0.941306
LeftFoot  3.08998 -0.00420956 0.779995
LeftToes  -18.7766 1.48347e-006 1.01831e-007
157
root  -12.4407 34.5465 -17.5943 -171.278 1.78848 179.846
RightUpLeg  -9.08259 -13.2697 -0.564395
RightLeg  8.03634 -0.899426 -0.0672944
RightFoot  2.35035 -0.0160337 0.089724
RightToes  -23.6057 -0.099912 -0.203684
Spine  -2.57493 -0.0211857 0.622666
Spine1  -5.22988 -0.0105409 1.77755
HEad  -63.3789 3.41843 6.10333
LeftShoulder1  -1.94126e-019 -3.10601e-018 -2.51263e-017
LeftArm  -10.914 26.205 -82.8915
LeftForeArm  33.1124 -12.9945 -2.11419
LeftHand  -0.278106 -0.536945 5.54244
RightShoulder  -4.96962e-017 0 -2.36833e-017
RightArm  -27.8907 -27.8686 73.9145
RightForeArm  47.2722 17.3746 1.4302
RightHand  -0.247648 -1.97343 -8.17953
LeftUpLeg  -8.07757 -1.65207 1.36995
LeftLeg  7.5239 12.5866 0.837408
LeftFoot  3.22257 -0.00541277 0.826276
LeftToes  -18.3063 1.48347e-006 1.01831e-007
158
root  -12.4879 34.5695 -17.6121 -171.288 1.91685 179.825
RightUpLeg  -8.77637 -13.2921 -0.677186
RightLeg  7.44022 -0.762588 -0.0489093
RightFoot  2.71806 -0.0169944 0.0970417
RightToes  -23.7868 -0.100609 -0.204583
Spine  -2.64706 0.0580659 0.521297
Spine1  -5.3759 0.181683 1.5899
HEad  -62.6478 3.1324 5.87466
LeftShoulder1  -1.94126e-019 -3.10601e-018 -2.51263e-017
LeftArm  -11.3129 26.2555 -82.7275
LeftForeArm  33.1846 -12.9004 -2.10668
LeftHand  -0.28124 -0.540982 5.60073
RightShoulder  -4.96962e-017 0 -2.36833e-017
RightArm  -27.2704 -27.3474 73.832
RightForeArm  46.7548 18.1378 1.58981
RightHand  -0.268791 -1.78079 -8.45374
LeftUpLeg  -7.81774 -1.48254 1.23761
LeftLeg  7.08278 12.5683 0.739914
LeftFoot  3.37597 -0.00631937 0.868071
LeftToes  -18.4696 1.48347e-006 1.01831e-007
159
root  -12.5239 34.5852 -17.6294 -171.314 1.9977 179.825
RightUpLeg  -8.53476 -13.3726 -0.749463
RightLeg  7.02468 -0.60459 -0.0341476
RightFoot  2.95692 -0.018095 0.106664
RightToes  -23.8588 -0.101213 -0.205366
Spine  -2.71442 0.110037 0.435652
Spine1  -5.51275 0.309802 1.43199
HEad  -61.9572 2.86221 5.70041
LeftShoulder1  -1.94126e-019 -3.10601e-018 -2.51263e-017
LeftArm  -11.5921 26.2587 -82.5891
LeftForeArm  33.2842 -12.7805 -2.09652
LeftHand  -0.290856 -0.611025 5.72867
RightShoulder  -4.96962e-017 0 -2.36833e-017
RightArm  -26.9939 -26.7146 73.8747
RightForeArm  46.5528 18.4536 1.65571
RightHand  -0.286298 -1.62649 -8.67043
LeftUpLeg  -7.60261 -1.24373 1.15179
LeftLeg  6.74136 12.4279 0.658113
LeftFoot  3.39353 -0.0046296 0.86957
LeftToes  -18.2736 1.48347e-006 1.01831e-007
160
root  -12.5558 34.5957 -17.6505 -171.361 2.05898 179.799
RightUpLeg  -8.34952 -13.3206 -0.848531
RightLeg  6.79335 -0.603161 -0.031627
RightFoot  3.09108 -0.0186579 0.108921
RightToes  -23.9635 -0.10173 -0.206038
Spine  -2.75134 0.175866 0.344159
Spine1  -5.58965 0.454772 1.25691
HEad  -61.5001 2.5662 5.6143
LeftShoulder1  -1.94126e-019 -3.10601e-018 -2.51263e-017
LeftArm  -11.6812 26.199 -82.4579
LeftForeArm  33.3794 -12.7719 -2.09516
LeftHand  -0.293196 -0.630958 5.75685
RightShoulder  -4.96962e-017 0 -2.36833e-017
RightArm  -26.7175 -26.1315 73.9955
RightForeArm  46.5188 18.5594 1.67639
RightHand  -0.290506 -1.60325 -8.75013
LeftUpLeg  -7.39717 -1.53802 1.05878
LeftLeg  6.51636 12.8141 0.628259
LeftFoot  3.46429 -0.00569352 0.913864
LeftToes  -18.033 1.48347e-006 1.01831e-007
161
root  -12.5854 34.6012 -17.6726 -171.433 2.08347 179.773
RightUpLeg  -8.18399 -13.2723 -0.950641
RightLeg  6.67228 -0.623631 -0.0314203
RightFoot  3.13504 -0.0191321 0.11024
RightToes  -24.0127 -0.102164 -0.206607
Spine  -2.76695 0.234834 0.268524
Spine1  -5.62374 0.579395 1.11122
HEad  -61.2695 2.24171 5.52106
LeftShoulder1  -1.94126e-019 -3.10601e-018 -2.51263e-017
LeftArm  -11.7552 26.0755 -82.3747
LeftForeArm  33.4735 -12.7929 -2.09611
LeftHand  -0.294084 -0.712275 5.73314
RightShoulder  -4.96962e-017 0 -2.36833e-017
RightArm  -26.4607 -25.6442 74.1402
RightForeArm  46.644 18.476 1.65588
RightHand  -0.294854 -1.5599 -8.78903
LeftUpLeg  -7.19597 -1.58372 0.974317
LeftLeg  6.33499 12.9159 0.59257
LeftFoot  3.48943 -0.00486611 0.928689
LeftToes  -17.6575 1.48347e-006 1.01831e-007
162
root  -12.6129 34.6047 -17.6942 -171.508 2.04399 179.76
RightUpLeg  -8.05248 -13.3119 -1.02952
RightLeg  6.63593 -0.636619 -0.031694
RightFoot  3.16039 -0.0194649 0.109882
RightToes  -24.1505 -0.102521 -0.207077
Spine  -2.77605 0.276735 0.219086
Spine1  -5.64447 0.66605 1.01389
HEad  -61.2173 1.97378 5.55058
LeftShoulder1  -1.94126e-019 -3.10601e-018 -2.51263e-017
LeftArm  -11.7641 25.9869 -82.3621
LeftForeArm  33.3646 -12.9101 -2.10556
LeftHand  -0.291944 -0.69362 5.79395
RightShoulder  -4.96962e-017 0 -2.36833e-017
RightArm  -26.0495 -25.335 74.2604
RightForeArm  46.7804 18.3263 1.62288
RightHand  -0.293746 -1.55778 -8.75055
LeftUpLeg  -7.03498 -1.61468 0.912997
LeftLeg  6.215 12.913 0.56559
LeftFoot  3.47979 -0.00301355 0.927443
LeftToes  -17.4251 1.48347e-006 1.01831e-007
